<svg width="238" height="243" viewBox="0 0 238 243" fill="none" xmlns="http://www.w3.org/2000/svg">
<g clip-path="url(#clip0_10_153)">
<path d="M158.303 243H12.9908C9.54662 242.996 6.24461 241.59 3.8092 239.09C1.3738 236.59 0.00388774 233.2 0 229.664V13.3356C0.00388774 9.8 1.3738 6.41036 3.8092 3.91032C6.24461 1.41027 9.54662 0.00399092 12.9908 0H158.303C161.747 0.00398597 165.049 1.41027 167.485 3.91031C169.92 6.41035 171.29 9.79999 171.294 13.3356V229.664C171.29 233.2 169.92 236.59 167.485 239.09C165.049 241.59 161.747 242.996 158.303 243Z" fill="#3F3D56"/>
<path d="M158.559 234.492H12.735C11.6733 234.49 10.6555 234.057 9.90472 233.286C9.15398 232.516 8.73168 231.471 8.73047 230.381V12.6193C8.73168 11.5294 9.15398 10.4845 9.90472 9.71383C10.6555 8.94317 11.6733 8.50967 12.735 8.50842H158.559C159.621 8.50967 160.639 8.94317 161.389 9.71383C162.14 10.4845 162.562 11.5294 162.564 12.6193V230.381C162.562 231.471 162.14 232.516 161.389 233.286C160.639 234.057 159.621 234.49 158.559 234.492Z" fill="white"/>
<path d="M85.0944 5.21849C85.7047 5.21849 86.1995 4.71058 86.1995 4.08404C86.1995 3.4575 85.7047 2.94958 85.0944 2.94958C84.484 2.94958 83.9893 3.4575 83.9893 4.08404C83.9893 4.71058 84.484 5.21849 85.0944 5.21849Z" fill="white"/>
<path d="M124.544 100.601L119.717 85.7589L119.635 85.5009L139.965 72.3186L141.046 73.8136L146.708 81.6402L144.638 87.9704L139.289 104.325L139.054 105.044L148.961 112.605C149.353 113.348 149.679 114.026 149.945 114.649C152.902 121.566 148.524 121.252 148.524 121.252L128.377 112.387L124.544 100.601Z" fill="#FFB7B7"/>
<path d="M135.21 103.364L134.322 100.632L129.963 87.2193L129.055 84.4234L128.292 82.0836L138.233 75.6361L148.622 68.9014L155.365 78.2229L153.321 84.4733L152.328 87.5102L150.792 92.2077L147.711 101.627L157.618 109.188C158.367 110.537 158.959 111.972 159.381 113.464C159.553 114.087 159.635 114.732 159.623 115.379C159.639 115.71 159.587 116.041 159.469 116.35C159.351 116.659 159.171 116.939 158.941 117.171C158.71 117.403 158.434 117.582 158.13 117.697C157.827 117.811 157.504 117.859 157.182 117.835L137.034 108.97L135.21 103.364Z" fill="#FFB7B7"/>
<path opacity="0.15" d="M134.265 103.969L133.096 91.3171L138.922 88.0742L139.303 88.7964L133.942 91.7803L135.026 103.509L146.937 111.883L146.486 112.561L134.265 103.969Z" fill="black"/>
<path opacity="0.15" d="M146.974 103.546L146.499 104.206L158.519 113.323L158.995 112.663L146.974 103.546Z" fill="black"/>
<path d="M146.257 115.947L85.7838 72.3068L24.6929 115.54L84.8727 141.627L146.257 115.947Z" fill="white"/>
<path d="M102.961 78.9053L123.324 58.4667L159.744 55.9408L205.015 100.318L238 118.849L228.707 146.9L188.895 127.5C180.79 126.889 175.574 124.128 172.276 121.224C171.142 120.227 170.119 119.103 169.228 117.873C168.252 116.569 167.49 115.11 166.973 113.553L150.792 92.2076L147.456 87.8028L145.295 84.9523L138.233 75.6361L137.724 74.9664L125.726 74.6403L119.481 83.0559L115.095 88.9617C114.992 91.0416 114.261 93.0371 113.002 94.67C109.068 99.5814 101.093 98.6223 101.093 98.6223L102.961 78.9053Z" fill="#FFB7B7"/>
<path d="M24.9262 115.5H24.9698L49.9457 126.448L84.1179 141.427C84.2514 141.485 84.3947 141.515 84.5396 141.516C84.6844 141.517 84.828 141.488 84.9621 141.432L120.218 126.417L145.807 115.518L145.846 115.5H145.89C146.294 115.501 146.681 115.666 146.966 115.959C147.252 116.252 147.412 116.649 147.413 117.064V184.958C147.412 185.372 147.252 185.769 146.966 186.062C146.681 186.356 146.294 186.52 145.89 186.521H24.9262C24.5225 186.52 24.1354 186.356 23.8499 186.062C23.5644 185.769 23.4038 185.372 23.4033 184.958V117.064C23.4038 116.649 23.5644 116.252 23.8499 115.959C24.1354 115.666 24.5225 115.501 24.9262 115.5Z" fill="white"/>
<path d="M24.8173 115.947C24.8617 115.947 24.905 115.933 24.9415 115.907L85.1098 72.892C85.2929 72.7617 85.5104 72.6921 85.7332 72.6925C85.956 72.6929 86.1734 72.7632 86.3561 72.8942L146.091 115.907C146.138 115.94 146.197 115.954 146.253 115.943C146.31 115.933 146.36 115.9 146.394 115.852C146.427 115.803 146.44 115.743 146.43 115.685C146.42 115.627 146.388 115.575 146.341 115.541L86.6059 72.5284C86.3501 72.3451 86.0459 72.2466 85.7339 72.2461C85.422 72.2456 85.1174 72.3431 84.8611 72.5255L24.6928 115.54C24.6548 115.568 24.6262 115.607 24.6113 115.652C24.5963 115.697 24.5957 115.745 24.6096 115.791C24.6235 115.836 24.6511 115.876 24.6885 115.904C24.7259 115.932 24.771 115.947 24.8173 115.947Z" fill="#3F3D56"/>
<path d="M142.678 117.472L85.6744 74.1039L28.2388 120.557L82.7376 153.723L112.326 146.8L142.678 117.472Z" fill="#E6E6E6"/>
<path d="M109.828 174.208H137.989C138.338 174.208 138.672 174.066 138.919 173.813C139.166 173.56 139.305 173.217 139.305 172.859C139.306 172.501 139.168 172.157 138.922 171.904C138.676 171.65 138.342 171.507 137.993 171.506H109.828C109.479 171.506 109.145 171.648 108.898 171.901C108.651 172.154 108.512 172.497 108.512 172.855C108.511 173.213 108.649 173.556 108.895 173.81C109.141 174.064 109.475 174.207 109.824 174.208H109.828Z" fill="#6C63FF"/>
<path d="M127.885 168.401H137.989C138.338 168.401 138.672 168.259 138.919 168.006C139.166 167.753 139.305 167.41 139.305 167.052C139.306 166.694 139.168 166.351 138.922 166.097C138.676 165.844 138.342 165.701 137.993 165.7H127.885C127.537 165.7 127.202 165.842 126.956 166.094C126.709 166.347 126.57 166.69 126.569 167.048C126.569 167.406 126.707 167.75 126.953 168.003C127.199 168.257 127.533 168.4 127.882 168.401H127.885Z" fill="#6C63FF"/>
<path d="M84.8727 141.627C85.0867 141.627 85.2988 141.585 85.4969 141.502L120.653 126.527V79.6551C120.652 79.2407 120.492 78.8433 120.206 78.5502C119.921 78.2572 119.534 78.0923 119.13 78.0918H51.686C51.2823 78.0923 50.8952 78.2572 50.6097 78.5502C50.3242 78.8433 50.1636 79.2407 50.1631 79.6551V126.56L50.2292 126.589L84.2296 141.494C84.4332 141.582 84.6518 141.627 84.8727 141.627Z" fill="white"/>
<path d="M84.1867 141.597L50.0542 126.634V79.6551C50.0547 79.211 50.2268 78.7853 50.5327 78.4713C50.8386 78.1572 51.2533 77.9806 51.6859 77.9801H119.13C119.562 77.9806 119.977 78.1572 120.283 78.4713C120.589 78.7853 120.761 79.211 120.761 79.6551V126.602L85.5382 141.605C85.1045 141.786 84.6184 141.783 84.1867 141.597ZM120.326 79.6551C120.326 79.3294 120.2 79.0172 119.975 78.787C119.751 78.5567 119.447 78.4272 119.13 78.4268H51.6859C51.3686 78.4272 51.0645 78.5567 50.8402 78.787C50.6159 79.0172 50.4897 79.3294 50.4893 79.6551V126.339L84.3567 141.186C84.6811 141.326 85.0463 141.328 85.3723 141.192L120.326 126.303L120.326 79.6551Z" fill="#3F3D56"/>
<path d="M23.7295 117.064V184.958C23.7299 185.372 23.8905 185.769 24.176 186.062C24.4616 186.356 24.8487 186.52 25.2524 186.521H146.216C146.62 186.52 147.007 186.356 147.292 186.062C147.578 185.769 147.739 185.372 147.739 184.958V117.064C147.739 116.649 147.578 116.252 147.292 115.959C147.007 115.666 146.62 115.501 146.216 115.5H146.172L146.133 115.518L120.544 126.417L85.2883 141.432C85.1542 141.488 85.0106 141.517 84.8657 141.516C84.7209 141.515 84.5776 141.485 84.4441 141.427L50.2719 126.448L25.296 115.5H25.2524C24.8487 115.501 24.4616 115.666 24.176 115.959C23.8905 116.252 23.7299 116.649 23.7295 117.064ZM24.1646 117.064C24.1653 116.776 24.2742 116.499 24.4687 116.291C24.6631 116.083 24.9283 115.96 25.2089 115.947L50.2719 126.933L84.2722 141.838C84.6503 142.001 85.0759 142.004 85.4557 141.845L120.544 126.899L146.257 115.947C146.538 115.959 146.804 116.081 146.999 116.29C147.194 116.498 147.303 116.775 147.304 117.064V184.958C147.304 185.254 147.189 185.538 146.985 185.747C146.781 185.956 146.505 186.074 146.216 186.074H25.2524C24.9639 186.074 24.6873 185.956 24.4834 185.747C24.2794 185.538 24.1647 185.254 24.1646 184.958V117.064Z" fill="#3F3D56"/>
<path d="M57.5901 95.6127H81.5217C81.9833 95.6127 82.426 95.4244 82.7524 95.0894C83.0788 94.7543 83.2622 94.2998 83.2622 93.826C83.2622 93.3521 83.0788 92.8977 82.7524 92.5626C82.426 92.2275 81.9833 92.0393 81.5217 92.0393H57.5901C57.1285 92.0393 56.6858 92.2275 56.3594 92.5626C56.033 92.8977 55.8496 93.3521 55.8496 93.826C55.8496 94.2998 56.033 94.7543 56.3594 95.0894C56.6858 95.4244 57.1285 95.6127 57.5901 95.6127Z" fill="#6C63FF"/>
<path d="M57.6047 88.0194H69.1355C69.5971 88.0194 70.0398 87.8312 70.3662 87.4961C70.6926 87.161 70.8759 86.7066 70.8759 86.2327C70.8759 85.7589 70.6926 85.3044 70.3662 84.9694C70.0398 84.6343 69.5971 84.446 69.1355 84.446H57.6047C57.1431 84.446 56.7004 84.6343 56.374 84.9694C56.0476 85.3044 55.8643 85.7589 55.8643 86.2327C55.8643 86.7066 56.0476 87.161 56.374 87.4961C56.7004 87.8312 57.1431 88.0194 57.6047 88.0194Z" fill="#6C63FF"/>
<path d="M67.509 113.48H104.059C104.521 113.48 104.963 113.291 105.29 112.956C105.616 112.621 105.8 112.167 105.8 111.693C105.8 111.219 105.616 110.765 105.29 110.43C104.963 110.094 104.521 109.906 104.059 109.906H67.509C67.0474 109.906 66.6047 110.094 66.2783 110.43C65.9519 110.765 65.7686 111.219 65.7686 111.693C65.7686 112.167 65.9519 112.621 66.2783 112.956C66.6047 113.291 67.0474 113.48 67.509 113.48Z" fill="#CCCCCC"/>
<path d="M67.509 121.743H104.059C104.521 121.743 104.963 121.555 105.29 121.219C105.616 120.884 105.8 120.43 105.8 119.956C105.8 119.482 105.616 119.028 105.29 118.693C104.963 118.358 104.521 118.169 104.059 118.169H67.509C67.0474 118.169 66.6047 118.358 66.2783 118.693C65.9519 119.028 65.7686 119.482 65.7686 119.956C65.7686 120.43 65.9519 120.884 66.2783 121.219C66.6047 121.555 67.0474 121.743 67.509 121.743Z" fill="#CCCCCC"/>
<path opacity="0.1" d="M152.328 87.5102L159.587 87.0793L188.593 123.775L178.345 122.166L172.276 121.224C171.142 120.227 170.119 119.103 169.228 117.873L162.484 115.818L159.381 113.464C159.575 114.229 152.328 87.5102 152.328 87.5102Z" fill="black"/>
<path d="M105.925 86.3425C106.133 84.97 106.861 83.7378 107.952 82.915C109.042 82.0922 110.405 81.7456 111.743 81.951L119.481 83.0559L129.055 84.4234L136.454 85.4792L145.296 84.9523L153.321 84.4732L158.063 84.1924L189.59 124.079L162.484 115.818L159.381 113.464L145.793 103.162C145.793 103.162 141.341 102.319 134.322 100.632C133.278 100.377 121.464 97.3336 115.913 95.6784C114.838 95.3569 113.874 95.0206 113.002 94.67C106.814 92.1697 105.576 88.9644 105.925 86.3425Z" fill="#FFB7B7"/>
<path opacity="0.15" d="M110.356 91.3254C110.384 91.3221 113.146 90.9689 114.325 88.8925C115.12 87.4936 115.04 85.6098 114.088 83.2937L114.825 82.9747C115.881 85.5447 115.944 87.6767 115.013 89.3114C113.628 91.7429 110.577 92.1259 110.448 92.1411L110.356 91.3254Z" fill="black"/>
<path opacity="0.15" d="M138.286 85.7806L138.284 84.9599L152.505 84.9365L137.513 75.3145L137.937 74.618L155.286 85.7526L138.286 85.7806Z" fill="black"/>
</g>
<defs>
<clipPath id="clip0_10_153">
<rect width="238" height="243" fill="white"/>
</clipPath>
</defs>
</svg>
