<svg width="112" height="74" viewBox="0 0 112 74" fill="none" xmlns="http://www.w3.org/2000/svg">
<path d="M69.5096 14.36L78.8796 23.72L68.8196 33.78H63.2396V31.56H60.6296V33.78H52.8896V32.83V30.99L69.5096 14.36Z" fill="#7F8080"/>
<path d="M38.2501 23.73L40.0901 25.57L60.4101 5.25L67.6701 12.52L50.2801 29.91V36.38H60.6301V41.97L55.8501 46.75L41.9401 32.83L62.2501 12.51L60.4101 10.67L40.1001 30.99L32.8301 23.72L55.8501 0.700012L58.5701 3.41L38.2501 23.73Z" fill="#4D69B1"/>
<path d="M66.2202 36.38L63.2402 39.36V36.38H66.2202Z" fill="#7F8080"/>
<path d="M31.5696 73.87V73.19H33.5896C33.9096 73.19 34.1296 73.15 34.2496 73.08C34.4296 72.97 34.5196 72.8 34.5196 72.56C34.5196 72.27 34.4096 72.08 34.1796 71.98C34.0696 71.93 33.8596 71.91 33.5696 71.91H32.9796C32.4596 71.91 32.0896 71.83 31.8596 71.67C31.5396 71.44 31.3896 71.11 31.3896 70.68C31.3896 70.37 31.4696 70.1 31.6396 69.86C31.8196 69.6 32.0996 69.43 32.4796 69.37C32.6396 69.34 32.8696 69.33 33.1596 69.33H35.2096V70.01H33.2596C32.9396 70.01 32.7196 70.04 32.5796 70.1C32.3896 70.19 32.2996 70.36 32.2996 70.61C32.2996 70.84 32.3896 71 32.5596 71.09C32.6996 71.16 32.9196 71.19 33.2196 71.19H33.6996C34.0696 71.19 34.3496 71.21 34.5296 71.26C34.8796 71.34 35.1196 71.53 35.2696 71.81C35.3796 72.03 35.4396 72.28 35.4396 72.55C35.4396 72.84 35.3696 73.09 35.2296 73.31C35.0496 73.59 34.7796 73.77 34.4196 73.83C34.2596 73.86 33.9996 73.87 33.6396 73.87H31.5796H31.5696Z" fill="#7F8080"/>
<path d="M38.1995 69.32H40.0294C40.5094 69.32 40.8794 69.36 41.1194 69.44C41.5694 69.59 41.8894 69.9 42.0894 70.36C42.2394 70.7 42.3094 71.1 42.3094 71.56C42.3094 72.09 42.2194 72.55 42.0494 72.92C41.8394 73.38 41.4894 73.67 41.0194 73.79C40.8294 73.84 40.5094 73.86 40.0594 73.86H38.1895V69.3L38.1995 69.32ZM39.0395 70V73.19H40.1094C40.5794 73.19 40.9095 73.07 41.0995 72.82C41.1895 72.7 41.2595 72.54 41.3195 72.33C41.3795 72.11 41.4095 71.88 41.4095 71.65C41.4095 71.34 41.3594 71.05 41.2694 70.77C41.1594 70.45 40.9895 70.23 40.7495 70.12C40.5895 70.05 40.3694 70.02 40.0894 70.02H39.0494L39.0395 70Z" fill="#7F8080"/>
<path d="M45.8693 70.37V73.87H45.0693V69.31H46.0993L48.1993 72.84V69.31H48.9993V73.87H47.9993L45.8693 70.37Z" fill="#7F8080"/>
<path d="M52.6699 73.07V73.88H51.9199V73.07H52.6699Z" fill="#7F8080"/>
<path d="M59.3196 73.87V69.31H61.6796C62.1696 69.31 62.5296 69.39 62.7596 69.56C62.9196 69.68 63.0396 69.84 63.1196 70.03C63.1796 70.18 63.2096 70.33 63.2096 70.49C63.2096 70.78 63.1196 71.04 62.9396 71.25C62.8296 71.38 62.6896 71.48 62.5196 71.55C62.9996 71.73 63.2396 72.08 63.2396 72.6C63.2396 72.85 63.1796 73.07 63.0696 73.26C62.9096 73.54 62.6396 73.72 62.2796 73.8C62.0896 73.84 61.8496 73.85 61.5496 73.85H59.3096L59.3196 73.87ZM60.1596 71.22H61.5496C61.7296 71.22 61.8696 71.2 61.9496 71.17C62.0796 71.12 62.1696 71.04 62.2396 70.92C62.2896 70.82 62.3196 70.71 62.3196 70.6C62.3196 70.4 62.2596 70.25 62.1296 70.14C62.0496 70.07 61.9596 70.03 61.8496 70.02C61.7696 70.02 61.6796 70.01 61.5596 70.01H60.1596V71.23V71.22ZM60.1596 73.19H61.5196C61.7996 73.19 61.9996 73.14 62.1196 73.03C62.2596 72.91 62.3396 72.74 62.3396 72.52C62.3396 72.3 62.2696 72.13 62.1196 72.03C62.0096 71.95 61.8196 71.91 61.5696 71.91H60.1696V73.19H60.1596Z" fill="#7F8080"/>
<path d="M69.8195 69.32V73.88H68.9796V71.92H66.8595V73.88H66.0195V69.32H66.8595V71.23H68.9796V69.32H69.8195Z" fill="#7F8080"/>
<path d="M72.8293 69.32H74.6593C75.1393 69.32 75.5093 69.36 75.7493 69.44C76.1993 69.59 76.5193 69.9 76.7193 70.36C76.8693 70.7 76.9393 71.1 76.9393 71.56C76.9393 72.09 76.8493 72.55 76.6793 72.92C76.4693 73.38 76.1193 73.67 75.6493 73.79C75.4593 73.84 75.1393 73.86 74.6893 73.86H72.8193V69.3L72.8293 69.32ZM73.6693 70V73.19H74.7393C75.2093 73.19 75.5393 73.07 75.7293 72.82C75.8193 72.7 75.8893 72.54 75.9493 72.33C76.0093 72.11 76.0393 71.88 76.0393 71.65C76.0393 71.34 75.9893 71.05 75.8993 70.77C75.7893 70.45 75.6193 70.23 75.3793 70.12C75.2193 70.05 74.9993 70.02 74.7193 70.02H73.6793L73.6693 70Z" fill="#7F8080"/>
<path d="M80.3301 73.07V73.88H79.5801V73.07H80.3301Z" fill="#7F8080"/>
<path d="M13.3701 62.94V61.02L20.6801 54.81H23.9901V61.24H25.6801V62.94H23.9901V64.75H21.3701V62.94H13.3701ZM16.3401 61.24H21.3601V56.94L16.3401 61.24Z" fill="#7F8080"/>
<path d="M47.5098 64.75V54.82H50.2498V64.75H47.5098Z" fill="#7F8080"/>
<path d="M56.1301 54.82L61.2101 61.96L61.1001 54.82H63.7601V64.75H60.7301L55.3901 57.24L55.5101 64.75H52.8301V54.82H56.1401H56.1301Z" fill="#7F8080"/>
<path d="M72.6104 54.82L77.9004 64.75H74.9904L73.8604 62.38H68.4604L67.3504 64.75H64.6104L69.8404 54.82H72.6104ZM69.3004 60.62H72.9904L71.1104 56.8L69.3004 60.62Z" fill="#7F8080"/>
<path d="M82.6 54.82L85.75 62.44L88.92 54.82H92.74V64.75H90.18L90.39 57.02L87.21 64.75H84.44L81.16 56.93L81.42 64.75H78.75V54.82H82.6Z" fill="#7F8080"/>
<path d="M95.3105 64.75V54.82H98.0505V64.75H95.3105Z" fill="#7F8080"/>
<path d="M103.24 54.82V59.59L108.14 54.82H111.27L106.29 59.68L111.33 64.76H107.98L103.25 59.82V64.76H100.63V54.83H103.25L103.24 54.82Z" fill="#7F8080"/>
<path d="M40.4899 54.82H34.1699V64.75H40.4899C44.1499 64.75 45.6999 62.53 45.6999 59.78C45.6999 57.03 44.1499 54.81 40.4899 54.81V54.82ZM40.2499 63.03H36.7699V56.55H40.2499C41.5499 56.55 43.1399 57.63 43.1399 59.79C43.1399 61.95 41.5499 63.03 40.2499 63.03Z" fill="#7F8080"/>
<path d="M8.76991 64.87H0.889932V63.18H7.90992C10.1199 63.18 9.8899 60.7 8.2999 60.7H3.28993C-0.530074 60.7 -0.79009 54.83 3.67991 54.83H11.5599V56.52H4.53993C2.32993 56.52 2.55991 59 4.14991 59H9.15992C12.9799 59 13.2399 64.87 8.76991 64.87Z" fill="#7F8080"/>
</svg>
